# xmcd
#
# Track frame offsets:
#	150
#	17822
#	34294
#	50596
#	68360
#	82143
#	96325
#	114140
#	130715
#	147683
#	161359
#	177897
#	195795
#
# Disc length: 2813 seconds
#
# Revision: 0
# Processed by: cddbd v1.5.1PL2 Copyright (c) Steve Scherf et al.
# Submitted via: dBpowerAMP V4.0
#
DISCID=a70afb0d
DTITLE=Yves Desquiotz - Wonderfull
DYEAR=1900
DGENRE=country
TTITLE0=wondervull
TTITLE1=alles am grëff
TTITLE2=verzei mer
TTITLE3=sex richteger
TTITLE4=de pechert song
TTITLE5=ee faux pas
TTITLE6=fofzéng punkten
TTITLE7=abracadabra
TTITLE8=mat 21 joer
TTITLE9=am himmel
TTITLE10=de jérôme
TTITLE11=wondervull hesper kascht
TTITLE12=reimkaraoke
EXTD=
EXTT0=
EXTT1=
EXTT2=
EXTT3=
EXTT4=
EXTT5=
EXTT6=
EXTT7=
EXTT8=
EXTT9=
EXTT10=
EXTT11=
EXTT12=
PLAYORDER=
